<?xml version="1.0" standalone="no"?>
<!DOCTYPE svg PUBLIC "-//W3C//DTD SVG 20010904//EN"
 "http://www.w3.org/TR/2001/REC-SVG-20010904/DTD/svg10.dtd">
<svg version="1.0" xmlns="http://www.w3.org/2000/svg"
 width="900.000000pt" height="900.000000pt" viewBox="0 0 900.000000 900.000000"
 preserveAspectRatio="xMidYMid meet">
<metadata>
Created by potrace 1.11, written by Peter Selinger 2001-2013
</metadata>
<g transform="translate(0.000000,900.000000) scale(0.100000,-0.100000)"
fill="#000000" stroke="none">
<path d="M8340 7411 c-14 -5 -97 -36 -185 -69 -100 -37 -247 -81 -390 -117
-304 -75 -753 -175 -784 -175 -13 0 -47 17 -75 39 -91 68 -187 115 -283 137
-15 3 -80 9 -143 11 -172 7 -316 -23 -550 -114 -65 -26 -171 -57 -245 -72
l-130 -27 -2 -62 c-4 -99 -47 -173 -125 -213 -37 -19 -39 -23 -34 -52 10 -56
28 -219 24 -222 -1 -1 -61 -44 -133 -95 -206 -147 -215 -153 -215 -163 0 -4
14 -28 30 -53 17 -24 29 -44 26 -44 -3 0 -19 21 -36 46 -20 28 -37 43 -46 40
-18 -7 -416 -305 -430 -322 -6 -8 -14 -14 -18 -14 -17 0 -448 -351 -584 -477
l-64 -58 16 -37 c9 -21 16 -47 16 -58 0 -25 32 -26 140 -6 499 96 1401 104
2185 21 297 -31 355 -38 464 -56 62 -10 116 -20 118 -23 3 -3 -7 -27 -23 -53
-122 -210 -229 -467 -304 -738 -17 -60 -33 -118 -36 -127 -3 -10 -1 -18 5 -18
5 0 51 70 102 155 166 280 323 465 503 593 349 249 699 383 1131 431 78 9 96
15 143 48 119 82 225 247 259 405 20 94 10 125 -51 166 -56 37 -72 76 -92 222
-18 139 -26 169 -31 130 -18 -124 -83 -270 -121 -270 -25 0 -302 83 -302 91 0
3 48 49 108 102 133 118 158 145 214 228 80 117 106 234 128 556 13 191 5 246
-45 293 -26 25 -93 35 -135 21z m-1847 -587 c20 -10 37 -20 37 -24 0 -5 -52
-26 -202 -81 -60 -21 -65 -29 -48 -75 6 -15 8 -29 6 -31 -3 -3 -10 13 -17 36
-7 23 -14 41 -16 41 -2 0 -74 -27 -160 -60 -85 -34 -158 -58 -161 -56 -9 10
49 96 98 145 121 121 331 169 463 105z m-263 -294 c-8 -5 -19 -10 -25 -10 -5
0 -3 5 5 10 8 5 20 10 25 10 6 0 3 -5 -5 -10z m-140 -60 c-8 -5 -19 -10 -25
-10 -5 0 -3 5 5 10 8 5 20 10 25 10 6 0 3 -5 -5 -10z m-320 -134 c0 -2 -7 -7
-16 -10 -8 -3 -12 -2 -9 4 6 10 25 14 25 6z m-582 -237 c25 10 26 10 8 -4 -26
-20 -40 -19 -57 3 -13 15 -12 16 4 3 14 -11 23 -12 45 -2z m-528 -309 c17 -30
25 -48 17 -40 -17 18 -74 120 -59 105 5 -5 24 -35 42 -65z m95 -109 c42 6 76
-11 91 -46 19 -45 18 -48 -12 -84 -31 -38 -78 -41 -118 -10 -31 24 -36 82 -9
111 16 18 16 21 -1 51 l-18 32 24 -28 c14 -18 31 -28 43 -26z m1072 -2 c118
-73 67 -251 -72 -251 -79 0 -138 59 -138 136 0 107 118 172 210 115z m-920
-85 c-3 -3 -12 -4 -19 -1 -8 3 -5 6 6 6 11 1 17 -2 13 -5z m440 -20 c-3 -3
-12 -4 -19 -1 -8 3 -5 6 6 6 11 1 17 -2 13 -5z m241 -11 c-10 -2 -26 -2 -35 0
-10 3 -2 5 17 5 19 0 27 -2 18 -5z m1692 -45 c50 -26 90 -89 90 -143 0 -79
-70 -145 -154 -145 -87 0 -148 55 -162 146 -8 56 30 118 89 145 55 24 83 24
137 -3z m-1133 6 c-3 -3 -12 -4 -19 -1 -8 3 -5 6 6 6 11 1 17 -2 13 -5z m660
-70 c-3 -3 -12 -4 -19 -1 -8 3 -5 6 6 6 11 1 17 -2 13 -5z"/>
<path d="M5693 5636 c-23 -20 -28 -32 -28 -71 0 -39 5 -51 28 -71 40 -34 90
-32 128 5 83 84 -38 214 -128 137z"/>
<path d="M3754 7211 c-43 -26 -67 -83 -72 -169 -5 -91 8 -158 60 -313 31 -93
138 -368 185 -476 3 -9 -6 -13 -30 -13 -19 0 -74 -7 -123 -15 -124 -22 -257
-89 -395 -199 l-107 -85 16 -43 c21 -59 10 -109 -33 -153 -62 -62 -143 -66
-217 -12 -26 19 -27 19 -56 1 -173 -110 -425 -242 -494 -259 -16 -4 -28 -11
-28 -15 0 -23 234 -44 420 -37 163 6 287 23 433 58 48 12 90 19 93 17 2 -3
-26 -28 -63 -56 -38 -28 -106 -89 -152 -136 l-84 -85 -61 5 c-54 5 -65 3 -102
-22 -75 -49 -100 -129 -66 -207 11 -24 24 -47 30 -51 7 -4 0 -29 -18 -69 -40
-88 -86 -238 -105 -342 -20 -102 -33 -493 -18 -519 7 -13 19 -4 66 54 53 64
200 211 291 292 l39 35 -17 43 c-24 61 -14 111 33 160 61 64 151 67 216 6 l36
-34 122 58 c253 121 553 189 848 193 77 1 139 4 139 8 0 3 -33 15 -72 27 -404
116 -858 100 -1210 -43 -32 -13 -58 -20 -58 -15 0 5 22 33 50 63 59 65 165
139 277 196 l82 41 -14 41 c-39 110 12 232 114 271 39 14 117 12 152 -6 l32
-16 61 58 c51 48 134 119 323 277 l24 20 -81 109 c-45 59 -79 110 -78 112 2 2
37 -42 78 -97 41 -55 79 -104 85 -109 6 -4 51 25 110 72 117 94 517 395 557
420 36 22 35 34 -3 89 -31 44 -6 20 30 -29 l19 -27 29 21 c15 11 87 63 158
114 72 51 131 94 133 95 4 3 -26 194 -33 205 -3 5 -15 10 -25 10 -35 0 -106
38 -137 74 -18 19 -40 57 -49 84 l-17 48 -91 -18 c-50 -10 -156 -21 -236 -25
-212 -8 -300 16 -595 164 -82 42 -174 91 -204 110 -56 36 -121 63 -150 63 -9
0 -30 -9 -47 -19z m251 -269 c17 -8 102 -56 190 -106 170 -97 201 -115 307
-174 38 -20 68 -39 68 -42 0 -3 -21 -20 -47 -37 l-46 -33 -34 40 c-59 69 -160
72 -219 7 -49 -53 -54 -107 -18 -195 6 -13 -34 -32 -54 -25 -14 6 -123 195
-200 349 -72 142 -84 211 -39 232 24 11 46 8 92 -16z m378 -400 c23 -21 22
-74 -3 -97 -29 -26 -70 -22 -97 9 -28 33 -28 42 -4 82 16 27 23 30 52 26 19
-2 42 -11 52 -20z m300 -59 c-34 -2 -93 -2 -130 0 -37 2 -9 3 62 3 72 0 102
-1 68 -3z m140 0 c-13 -2 -35 -2 -50 0 -16 2 -5 4 22 4 28 0 40 -2 28 -4z m58
-10 c13 -17 13 -17 -6 -3 -11 8 -22 16 -24 17 -2 2 0 3 6 3 6 0 17 -8 24 -17z
m30 -40 c13 -16 12 -17 -3 -4 -10 7 -18 15 -18 17 0 8 8 3 21 -13z m-834 -479
c-3 -3 -12 -4 -19 -1 -8 3 -5 6 6 6 11 1 17 -2 13 -5z m-80 -10 c-3 -3 -12 -4
-19 -1 -8 3 -5 6 6 6 11 1 17 -2 13 -5z m-164 -21 c-7 -2 -19 -2 -25 0 -7 3
-2 5 12 5 14 0 19 -2 13 -5z m-336 -39 c-3 -3 -12 -4 -19 -1 -8 3 -5 6 6 6 11
1 17 -2 13 -5z m-429 -770 c27 -18 30 -69 5 -96 -25 -28 -77 -24 -102 8 -12
15 -21 32 -21 39 0 7 9 24 21 39 24 30 63 34 97 10z"/>
<path d="M5260 7081 c-122 -65 -84 -254 54 -268 58 -6 105 21 134 77 40 77 16
155 -59 192 -44 23 -86 23 -129 -1z"/>
<path d="M3102 5935 c-37 -16 -52 -42 -52 -88 0 -67 67 -113 129 -87 63 26 74
126 18 163 -35 22 -62 25 -95 12z"/>
<path d="M3734 5336 c-90 -40 -108 -157 -33 -220 60 -51 145 -39 192 26 44 59
15 156 -56 189 -50 22 -62 23 -103 5z"/>
<path d="M5583 5010 c-30 -15 -48 -34 -62 -64 -24 -49 -26 -67 -9 -113 8 -22
9 -37 2 -41 -11 -8 -434 -450 -552 -576 -45 -49 -84 -87 -85 -85 -2 2 -18 39
-36 83 l-32 78 32 32 c85 83 105 232 44 332 -59 96 -182 149 -288 125 -132
-29 -212 -131 -212 -266 1 -128 73 -222 201 -260 l67 -21 69 -169 c38 -94 73
-178 76 -187 4 -9 12 -14 17 -10 12 8 299 352 460 550 162 201 190 234 242
291 46 50 51 53 73 41 13 -7 43 -10 72 -8 55 6 92 33 114 85 53 124 -73 243
-193 183z m-862 -383 c76 -50 86 -143 23 -203 -87 -83 -224 -25 -224 95 0 104
115 166 201 108z"/>
<path d="M7330 4744 c-198 -38 -340 -183 -372 -379 -27 -165 52 -341 197 -436
36 -24 65 -50 65 -58 0 -8 -5 -41 -12 -73 l-12 -58 -92 0 c-51 0 -95 -4 -98
-8 -2 -4 -32 -116 -64 -247 -146 -585 -255 -1030 -256 -1043 -1 -10 56 -13
298 -12 165 0 302 3 304 5 3 3 31 109 62 236 55 227 68 259 98 240 10 -6 4
-44 -27 -167 -21 -87 -49 -203 -61 -257 -20 -87 -26 -99 -51 -113 -79 -40 -60
-154 25 -154 65 0 98 79 56 132 -19 25 -19 26 6 129 70 289 105 436 110 452 5
14 -2 17 -40 17 -25 0 -46 3 -46 8 0 4 13 55 28 114 l27 108 45 22 c33 17 51
35 69 71 15 30 30 47 42 47 13 0 21 11 28 38 6 20 40 156 76 302 36 146 68
273 71 282 3 9 -8 31 -26 51 -19 22 -27 38 -20 42 18 11 67 117 80 174 49 209
-91 453 -296 516 -52 16 -173 27 -214 19z m176 -232 c148 -77 180 -254 66
-372 -88 -91 -216 -101 -315 -26 -63 48 -92 107 -92 186 1 112 63 195 175 231
38 13 123 3 166 -19z m192 -852 c-39 -157 -74 -289 -78 -293 -4 -5 -14 8 -20
30 -7 21 -21 49 -31 63 -18 24 -18 28 11 140 16 63 30 121 30 128 0 9 -34 12
-136 12 l-136 0 7 48 c9 61 10 62 55 62 95 0 217 46 290 109 l35 30 22 -22 22
-22 -71 -285z m-200 -252 c31 -34 35 -68 13 -105 -37 -59 -120 -52 -146 11
-25 59 13 116 75 116 25 0 43 -7 58 -22z m-353 -100 c-7 -24 -41 -163 -75
-310 -60 -252 -62 -269 -47 -286 36 -40 3 -101 -47 -88 -53 13 -58 75 -7 95
27 12 30 20 101 322 41 170 77 309 81 309 4 0 1 -19 -6 -42z"/>
<path d="M3230 4570 c-33 -33 -41 -65 -27 -107 30 -93 165 -84 183 12 11 60
-35 114 -98 115 -25 0 -45 -7 -58 -20z"/>
<path d="M1620 4329 c-47 -67 -110 -158 -140 -202 -31 -45 -116 -167 -190
-272 -121 -172 -257 -366 -340 -485 -44 -64 -198 -283 -305 -435 -50 -71 -113
-161 -140 -200 -27 -38 -84 -121 -128 -183 -44 -62 -77 -115 -74 -118 2 -3
146 -5 318 -5 l314 1 20 24 c11 13 67 90 123 170 l104 146 414 0 c228 0 414
-3 414 -7 0 -19 52 -301 58 -316 7 -17 30 -18 401 -18 363 1 395 2 407 18 7
10 30 43 51 73 21 30 62 89 93 130 30 42 62 86 70 98 l15 22 410 1 c385 0 410
-1 417 -18 4 -10 18 -85 32 -167 14 -82 27 -150 28 -152 7 -6 53 -6 414 -5
l380 1 120 168 119 167 417 3 416 2 10 -60 c6 -33 19 -109 28 -170 l17 -109
323 -3 c300 -3 324 -2 324 14 0 10 -20 131 -44 270 -25 139 -77 440 -115 668
-39 228 -97 561 -129 740 l-57 325 -331 3 -330 2 -34 -47 c-19 -27 -84 -120
-145 -208 -111 -160 -262 -376 -391 -557 -38 -53 -96 -136 -129 -184 -54 -80
-303 -434 -310 -442 -5 -5 -19 73 -75 408 -62 365 -168 976 -175 1008 l-5 22
-332 -2 -332 -3 -157 -225 c-87 -124 -208 -297 -270 -385 -62 -88 -187 -266
-277 -395 -90 -129 -192 -275 -226 -324 -34 -50 -67 -91 -72 -93 -6 -2 -16 29
-22 69 -6 40 -27 163 -47 273 -19 110 -49 283 -66 385 -17 102 -51 298 -75
437 -24 138 -44 254 -44 257 0 3 -150 6 -332 6 l-333 -1 -85 -120z m2205 -764
c14 -121 30 -250 35 -287 6 -37 10 -72 10 -77 0 -8 -76 -11 -235 -11 -129 0
-235 2 -235 5 0 15 394 609 397 599 1 -5 14 -108 28 -229z m1936 -93 c18 -149
30 -274 27 -277 -3 -3 -109 -4 -236 -3 l-231 3 33 50 c19 28 42 64 52 82 11
17 84 131 164 252 131 200 146 218 151 193 4 -15 22 -150 40 -300z m-3850 15
c20 -161 35 -293 34 -295 -1 -1 -108 -1 -238 0 l-237 3 197 298 c108 163 199
295 202 291 3 -3 22 -137 42 -297z"/>
</g>
</svg>
