<svg id="Capa_1" data-name="Capa 1" xmlns="http://www.w3.org/2000/svg" viewBox="0 0 141.73 141.73"><defs><style>.cls-1{fill:#76aadb;}.cls-2{fill:#4a72b2;}.cls-3{fill:#9a999e;}</style></defs><title>Mesa de trabajo 1</title><path class="cls-1" d="M57.66,65.53a9.41,9.41,0,1,0,9.4,9.4A9.42,9.42,0,0,0,57.66,65.53Zm0,14.87a5.47,5.47,0,1,1,5.46-5.47A5.47,5.47,0,0,1,57.66,80.4Z"/><path class="cls-1" d="M84.34,65.53a9.41,9.41,0,1,0,9.41,9.4A9.41,9.41,0,0,0,84.34,65.53Zm0,14.87a5.47,5.47,0,1,1,5.47-5.47A5.48,5.48,0,0,1,84.34,80.4Z"/><path class="cls-1" d="M84.23,60.5H57.77a14.44,14.44,0,1,0,0,28.87H84.23a14.44,14.44,0,1,0,0-28.87ZM57.66,85.65A10.72,10.72,0,1,1,68.37,74.93,10.73,10.73,0,0,1,57.66,85.65Zm26.68,0A10.72,10.72,0,1,1,95.06,74.93,10.73,10.73,0,0,1,84.34,85.65Z"/><path class="cls-2" d="M45.66,104.79V99c-.36.67-.66,1.21-.89,1.62-.81,1.42-1.61,2.13-2.38,2.13s-1.55-.7-2.36-2.11c-.31-.54-.62-1.09-.91-1.64v5.77H36.78V97.27A1.73,1.73,0,0,1,37.32,96a1.76,1.76,0,0,1,1.29-.54c.86,0,1.77.81,2.72,2.44l1.06,1.88c.3-.54.6-1.08.91-1.62a10.79,10.79,0,0,1,1.26-1.83,2.28,2.28,0,0,1,1.61-.87,1.76,1.76,0,0,1,1.29.54A1.73,1.73,0,0,1,48,97.27v7.52Z"/><path class="cls-2" d="M48.93,99.18l1.56-2.33h4.27A1.16,1.16,0,0,1,55.94,98v1.17Zm1.17,5.61a1.18,1.18,0,0,1-1.17-1.18v-2.79a1.18,1.18,0,0,1,1.17-1.18h1.48L53.14,102H51.27v.47h2.34V99.64h2.33v5.15Z"/><path class="cls-2" d="M56.87,104.79V95.44h2.34v9.35Zm4.94,0-2.13-3.28v-2.3l1.52-2.36H64l-2.28,3.5,2.89,4.44Z"/><path class="cls-2" d="M71,104.79H66.24a1.16,1.16,0,0,1-.83-.35,1.13,1.13,0,0,1-.34-.83V98a1.16,1.16,0,0,1,1.17-1.16h4.68a1.11,1.11,0,0,1,.82.34,1.09,1.09,0,0,1,.34.82v1.17H67.41v3.27h5.15ZM70.92,102H69.44l-1.56-2.34h4.2v1.18a1.11,1.11,0,0,1-.34.82A1.15,1.15,0,0,1,70.92,102Z"/><path class="cls-2" d="M73.49,104.79V96.85h2.34v7.94Zm2.81-5.61V96.85h2.63l1.57,2.33Z"/><path class="cls-1" d="M87,104.79H80.41V98.24h2.35v.48h2.33v-1H80.41V95.44h5.84c.47,0,.82.3,1,.91a6.2,6.2,0,0,1,.23,1.87q0,.59,0,.93t-.06.78c.31.46.63.91,1,1.35a3.14,3.14,0,0,1,.58,1.57,1.84,1.84,0,0,1-.57,1.37A1.88,1.88,0,0,1,87,104.79Zm-1.65-3.74H82.76v1.4h3.49Z"/><path class="cls-1" d="M89.55,97.77V96.6a1.11,1.11,0,0,1,.35-.81,1.14,1.14,0,0,1,.83-.35h5.14A1.16,1.16,0,0,1,97,96.6v1.17Zm6.32,7H90.73a1.2,1.2,0,0,1-1.18-1.18V98.24H91.9v4.21h2.8V98.24H97v5.37a1.16,1.16,0,0,1-.33.83A1.11,1.11,0,0,1,95.87,104.79Z"/><path class="cls-1" d="M100.29,104.79v-7H98V95.44h4.66v9.35Zm4.51-7h-1.71V95.44h3.27Z"/><path class="cls-3" d="M123.58,95V77h-8.39a44.67,44.67,0,0,0-6.56-15.55l6-6L101.91,42.69l-6.07,6.07a44.56,44.56,0,0,0-15.49-6.41V33.76h-18v8.59a44.69,44.69,0,0,0-15.5,6.41l-6.07-6.07L28.05,55.42l6,6A44.65,44.65,0,0,0,27.51,77H19.12V95H27.4a44.24,44.24,0,0,0,3.76,11H26.54v2h89.62v-2h-4.62a44.24,44.24,0,0,0,3.76-11Zm-87,11a40,40,0,1,1,69.58,0Z"/></svg>