<?xml version="1.0" encoding="utf-8"?>
<!-- Generator: Adobe Illustrator 21.1.0, SVG Export Plug-In . SVG Version: 6.00 Build 0)  -->
<svg version="1.1" id="Layer_1" xmlns="http://www.w3.org/2000/svg" xmlns:xlink="http://www.w3.org/1999/xlink" x="0px" y="0px"
	 viewBox="0 0 23 23" style="enable-background:new 0 0 23 23;" xml:space="preserve">
<style type="text/css">
	.st0{clip-path:url(#XMLID_88_);}
	.st1{clip-path:url(#SVGID_2_);}
	.st2{fill:#FFFFFF;}
	.st3{fill:#22368F;}
	.st4{fill:#BC0030;}
	.st5{clip-path:url(#SVGID_4_);}
	.st6{clip-path:url(#SVGID_6_);}
	.st7{clip-path:url(#SVGID_8_);}
	.st8{clip-path:url(#XMLID_88_);fill:#BC0030;}
	.st9{clip-path:url(#XMLID_89_);}
	.st10{clip-path:url(#SVGID_10_);}
	.st11{clip-path:url(#SVGID_12_);}
	.st12{clip-path:url(#SVGID_14_);}
	.st13{clip-path:url(#SVGID_16_);}
	.st14{clip-path:url(#XMLID_89_);fill:#BC0030;}
	.st15{clip-path:url(#XMLID_90_);}
	.st16{clip-path:url(#SVGID_18_);}
	.st17{fill:#2D5A95;}
	.st18{fill:#F3D02F;}
	.st19{clip-path:url(#XMLID_91_);}
	.st20{clip-path:url(#SVGID_20_);}
	.st21{fill:#58B44D;}
	.st22{fill:#EA0042;}
	.st23{clip-path:url(#SVGID_22_);}
	.st24{fill:#CFB428;}
	.st25{clip-path:url(#XMLID_92_);}
	.st26{clip-path:url(#SVGID_24_);}
	.st27{fill:#CB0028;}
	.st28{fill:#1A237B;}
	.st29{clip-path:url(#XMLID_93_);}
	.st30{clip-path:url(#SVGID_26_);}
	.st31{fill:#D00027;}
	.st32{clip-path:url(#SVGID_28_);}
	.st33{clip-path:url(#XMLID_94_);}
	.st34{clip-path:url(#SVGID_30_);}
	.st35{fill:#4D72C0;}
	.st36{fill:#F2DD30;}
	.st37{clip-path:url(#XMLID_95_);}
	.st38{clip-path:url(#SVGID_32_);}
	.st39{fill:#3F9B13;}
	.st40{clip-path:url(#XMLID_96_);}
	.st41{clip-path:url(#SVGID_34_);}
	.st42{fill:#BD0034;}
	.st43{clip-path:url(#XMLID_97_);}
	.st44{clip-path:url(#SVGID_36_);}
	.st45{fill:#CB001C;}
	.st46{fill:#2A3560;}
	.st47{clip-path:url(#XMLID_98_);}
	.st48{clip-path:url(#SVGID_38_);}
	.st49{fill:#4497B1;}
	.st50{fill:#50B63F;}
	.st51{clip-path:url(#SVGID_40_);}
	.st52{clip-path:url(#XMLID_98_);fill:#50B63F;}
	.st53{clip-path:url(#XMLID_98_);fill:#4497B1;}
	.st54{clip-path:url(#XMLID_98_);fill:#BC0030;}
	.st55{clip-path:url(#XMLID_99_);}
	.st56{clip-path:url(#SVGID_42_);}
	.st57{fill:#C8172B;}
	.st58{fill:#FCFF2C;}
	.st59{clip-path:url(#XMLID_99_);fill:#C8172B;}
	.st60{clip-path:url(#XMLID_100_);fill:#3E8B11;}
	.st61{clip-path:url(#XMLID_100_);}
	.st62{clip-path:url(#SVGID_44_);}
	.st63{fill:#3E8B11;}
	.st64{fill:#DF7A21;}
	.st65{fill:#CB0423;}
	.st66{clip-path:url(#SVGID_46_);}
	.st67{clip-path:url(#XMLID_101_);}
	.st68{clip-path:url(#SVGID_48_);}
	.st69{fill:#314588;}
	.st70{fill:#9F1330;}
	.st71{clip-path:url(#XMLID_102_);}
	.st72{clip-path:url(#SVGID_50_);}
	.st73{fill:#388752;}
	.st74{clip-path:url(#SVGID_52_);}
	.st75{clip-path:url(#XMLID_103_);}
	.st76{clip-path:url(#SVGID_54_);}
	.st77{fill:#DC1C37;}
	.st78{fill:#192967;}
	.st79{clip-path:url(#XMLID_105_);}
	.st80{clip-path:url(#SVGID_56_);}
	.st81{fill:#2A680B;}
	.st82{clip-path:url(#SVGID_58_);}
	.st83{clip-path:url(#XMLID_105_);fill:#FFFFFF;}
	.st84{clip-path:url(#XMLID_106_);}
	.st85{clip-path:url(#SVGID_60_);}
	.st86{fill:#2534A4;}
	.st87{clip-path:url(#SVGID_62_);}
	.st88{clip-path:url(#XMLID_106_);fill:#2534A4;}
	.st89{clip-path:url(#XMLID_106_);fill:#BC0030;}
	.st90{clip-path:url(#XMLID_107_);}
	.st91{clip-path:url(#SVGID_64_);}
	.st92{fill:#D80031;}
	.st93{clip-path:url(#XMLID_108_);}
	.st94{clip-path:url(#SVGID_66_);}
	.st95{fill:#EA0020;}
	.st96{clip-path:url(#SVGID_68_);}
	.st97{fill:none;}
	.st98{fill:#1A0095;}
	.st99{clip-path:url(#XMLID_109_);}
	.st100{clip-path:url(#SVGID_70_);}
	.st101{fill:#1C2A7D;}
	.st102{clip-path:url(#SVGID_72_);}
	.st103{clip-path:url(#XMLID_110_);}
	.st104{clip-path:url(#SVGID_74_);}
	.st105{fill:#F4F4F4;}
	.st106{fill:#323E95;}
	.st107{fill:#D8001E;}
	.st108{clip-path:url(#XMLID_111_);}
	.st109{clip-path:url(#SVGID_76_);}
	.st110{clip-path:url(#XMLID_112_);}
	.st111{clip-path:url(#SVGID_78_);}
	.st112{fill:#C90031;}
	.st113{fill:#313D83;}
	.st114{clip-path:url(#SVGID_80_);}
	.st115{fill:#F8E72D;}
	.st116{fill:#F7DE31;}
	.st117{fill:#272425;}
	.st118{clip-path:url(#XMLID_113_);}
	.st119{clip-path:url(#SVGID_82_);}
	.st120{clip-path:url(#SVGID_84_);}
	.st121{clip-path:url(#XMLID_113_);fill:#2534A4;}
	.st122{clip-path:url(#XMLID_113_);fill:#BC0030;}
	.st123{clip-path:url(#XMLID_114_);}
	.st124{clip-path:url(#SVGID_86_);}
	.st125{fill:#5784D9;}
	.st126{clip-path:url(#XMLID_115_);}
	.st127{clip-path:url(#SVGID_88_);}
	.st128{fill:#D03033;}
	.st129{fill:#1F189B;}
	.st130{fill:#F2B126;}
	.st131{fill:#32784C;}
	.st132{clip-path:url(#XMLID_116_);}
	.st133{clip-path:url(#SVGID_90_);}
	.st134{clip-path:url(#SVGID_92_);}
	.st135{fill:#B50037;}
	.st136{fill:#1E3476;}
	.st137{clip-path:url(#XMLID_117_);}
	.st138{clip-path:url(#SVGID_94_);}
	.st139{clip-path:url(#SVGID_96_);}
	.st140{fill:#B5002A;}
	.st141{fill:#F4C327;}
	.st142{clip-path:url(#SVGID_98_);}
	.st143{fill:#9D0025;}
	.st144{fill:#C1B020;}
	.st145{fill:#3D8E6D;}
	.st146{fill:#3057BB;}
	.st147{fill:#CACACA;}
	.st148{fill:#C0B420;}
	.st149{fill:#CA3E4B;}
	.st150{fill:#DE6BA8;}
	.st151{fill:#F7D591;}
	.st152{fill:#2F2AEC;}
	.st153{clip-path:url(#SVGID_100_);}
	.st154{clip-path:url(#XMLID_118_);}
	.st155{clip-path:url(#SVGID_102_);}
	.st156{clip-path:url(#SVGID_104_);}
	.st157{clip-path:url(#XMLID_119_);}
	.st158{clip-path:url(#SVGID_106_);}
	.st159{clip-path:url(#XMLID_120_);}
	.st160{clip-path:url(#SVGID_108_);}
	.st161{clip-path:url(#SVGID_110_);}
	.st162{clip-path:url(#XMLID_121_);}
	.st163{clip-path:url(#SVGID_112_);}
	.st164{clip-path:url(#XMLID_122_);}
	.st165{clip-path:url(#SVGID_114_);}
	.st166{clip-path:url(#SVGID_116_);}
	.st167{clip-path:url(#XMLID_123_);}
	.st168{clip-path:url(#SVGID_118_);}
	.st169{clip-path:url(#XMLID_124_);}
	.st170{clip-path:url(#SVGID_120_);}
	.st171{clip-path:url(#XMLID_125_);}
	.st172{clip-path:url(#SVGID_122_);}
	.st173{clip-path:url(#XMLID_126_);}
	.st174{clip-path:url(#SVGID_124_);}
	.st175{clip-path:url(#XMLID_127_);}
	.st176{clip-path:url(#SVGID_126_);}
	.st177{clip-path:url(#SVGID_128_);}
	.st178{clip-path:url(#XMLID_128_);}
	.st179{clip-path:url(#SVGID_130_);}
	.st180{clip-path:url(#XMLID_129_);}
	.st181{clip-path:url(#SVGID_132_);}
	.st182{clip-path:url(#SVGID_134_);}
	.st183{clip-path:url(#XMLID_130_);}
	.st184{clip-path:url(#SVGID_136_);}
	.st185{clip-path:url(#XMLID_131_);}
	.st186{clip-path:url(#SVGID_138_);}
	.st187{clip-path:url(#SVGID_140_);}
	.st188{clip-path:url(#XMLID_132_);}
	.st189{clip-path:url(#SVGID_142_);}
	.st190{clip-path:url(#XMLID_133_);}
	.st191{clip-path:url(#SVGID_144_);}
	.st192{clip-path:url(#SVGID_146_);}
	.st193{clip-path:url(#XMLID_134_);}
	.st194{clip-path:url(#SVGID_148_);}
	.st195{clip-path:url(#SVGID_150_);}
	.st196{clip-path:url(#XMLID_135_);}
	.st197{clip-path:url(#SVGID_152_);}
	.st198{clip-path:url(#XMLID_136_);}
	.st199{clip-path:url(#SVGID_154_);}
	.st200{clip-path:url(#SVGID_156_);}
	.st201{clip-path:url(#XMLID_137_);}
	.st202{clip-path:url(#SVGID_158_);}
	.st203{clip-path:url(#XMLID_138_);}
	.st204{clip-path:url(#SVGID_160_);}
	.st205{clip-path:url(#XMLID_139_);}
	.st206{clip-path:url(#SVGID_162_);}
	.st207{clip-path:url(#XMLID_140_);}
	.st208{clip-path:url(#SVGID_164_);}
	.st209{clip-path:url(#SVGID_166_);}
	.st210{clip-path:url(#XMLID_141_);}
	.st211{clip-path:url(#SVGID_168_);}
	.st212{clip-path:url(#SVGID_170_);}
	.st213{clip-path:url(#XMLID_142_);}
	.st214{clip-path:url(#SVGID_172_);}
	.st215{clip-path:url(#XMLID_142_);fill:#5784D9;}
	.st216{clip-path:url(#XMLID_143_);}
	.st217{clip-path:url(#SVGID_174_);}
	.st218{clip-path:url(#XMLID_144_);}
	.st219{clip-path:url(#SVGID_176_);}
	.st220{clip-path:url(#SVGID_178_);}
	.st221{clip-path:url(#XMLID_145_);}
	.st222{clip-path:url(#SVGID_180_);}
	.st223{clip-path:url(#SVGID_182_);}
	.st224{clip-path:url(#SVGID_184_);}
	.st225{clip-path:url(#SVGID_186_);}
	.st226{clip-path:url(#XMLID_146_);}
	.st227{clip-path:url(#SVGID_188_);}
	.st228{clip-path:url(#XMLID_147_);}
	.st229{clip-path:url(#SVGID_190_);}
	.st230{clip-path:url(#SVGID_192_);}
	.st231{clip-path:url(#XMLID_148_);}
	.st232{clip-path:url(#SVGID_194_);}
	.st233{clip-path:url(#XMLID_149_);}
	.st234{clip-path:url(#SVGID_196_);}
	.st235{clip-path:url(#SVGID_198_);}
	.st236{clip-path:url(#XMLID_150_);}
	.st237{clip-path:url(#SVGID_202_);}
	.st238{clip-path:url(#SVGID_203_);}
	.st239{clip-path:url(#XMLID_151_);}
	.st240{clip-path:url(#SVGID_206_);}
	.st241{clip-path:url(#XMLID_152_);}
	.st242{clip-path:url(#SVGID_208_);}
	.st243{clip-path:url(#XMLID_153_);}
	.st244{clip-path:url(#SVGID_210_);}
	.st245{clip-path:url(#XMLID_154_);}
	.st246{clip-path:url(#SVGID_212_);}
	.st247{clip-path:url(#SVGID_214_);}
	.st248{clip-path:url(#XMLID_155_);}
	.st249{clip-path:url(#XMLID_156_);}
	.st250{clip-path:url(#SVGID_216_);}
	.st251{clip-path:url(#XMLID_157_);}
	.st252{clip-path:url(#SVGID_218_);}
	.st253{clip-path:url(#SVGID_220_);}
	.st254{clip-path:url(#XMLID_158_);}
	.st255{clip-path:url(#SVGID_222_);}
	.st256{clip-path:url(#XMLID_159_);}
	.st257{clip-path:url(#XMLID_160_);}
	.st258{clip-path:url(#SVGID_224_);}
	.st259{clip-path:url(#SVGID_226_);}
	.st260{clip-path:url(#XMLID_161_);}
	.st261{clip-path:url(#SVGID_228_);}
	.st262{clip-path:url(#XMLID_162_);}
	.st263{clip-path:url(#SVGID_230_);}
	.st264{clip-path:url(#XMLID_163_);}
	.st265{clip-path:url(#SVGID_232_);}
	.st266{clip-path:url(#SVGID_234_);}
	.st267{clip-path:url(#XMLID_164_);}
	.st268{clip-path:url(#SVGID_236_);}
	.st269{clip-path:url(#SVGID_238_);}
	.st270{clip-path:url(#XMLID_165_);}
	.st271{clip-path:url(#SVGID_240_);}
	.st272{clip-path:url(#XMLID_166_);}
	.st273{clip-path:url(#SVGID_242_);}
	.st274{clip-path:url(#SVGID_244_);}
	.st275{clip-path:url(#XMLID_167_);}
	.st276{clip-path:url(#SVGID_246_);}
	.st277{clip-path:url(#XMLID_168_);}
	.st278{clip-path:url(#SVGID_248_);}
	.st279{clip-path:url(#XMLID_169_);}
	.st280{clip-path:url(#SVGID_250_);}
	.st281{clip-path:url(#XMLID_170_);}
	.st282{clip-path:url(#SVGID_252_);}
	.st283{clip-path:url(#SVGID_254_);}
	.st284{clip-path:url(#XMLID_171_);}
	.st285{clip-path:url(#SVGID_256_);}
	.st286{clip-path:url(#SVGID_258_);}
	.st287{clip-path:url(#XMLID_172_);}
	.st288{clip-path:url(#SVGID_260_);}
	.st289{clip-path:url(#XMLID_172_);fill:#5784D9;}
	.st290{clip-path:url(#XMLID_173_);}
	.st291{clip-path:url(#SVGID_262_);}
	.st292{clip-path:url(#XMLID_174_);}
	.st293{clip-path:url(#SVGID_264_);}
	.st294{clip-path:url(#SVGID_266_);}
	.st295{clip-path:url(#XMLID_175_);}
	.st296{clip-path:url(#SVGID_268_);}
	.st297{clip-path:url(#SVGID_270_);}
	.st298{clip-path:url(#SVGID_272_);}
	.st299{clip-path:url(#SVGID_274_);}
	.st300{fill:#5C6DC6;}
</style>
<g>
	<defs>
		<circle id="XMLID_73_" cx="11.5" cy="11.5" r="11"/>
	</defs>
	<clipPath id="XMLID_88_">
		<use xlink:href="#XMLID_73_"  style="overflow:visible;"/>
	</clipPath>
	<g class="st0">
		<g>
			<defs>
				<rect id="SVGID_35_" x="-4.7" y="0.8" width="36.5" height="21.2"/>
			</defs>
			<clipPath id="SVGID_2_">
				<use xlink:href="#SVGID_35_"  style="overflow:visible;"/>
			</clipPath>
			<g class="st1">
				<rect x="-4.7" y="20.5" class="st45" width="36.5" height="1.6"/>
			</g>
			<g class="st1">
				<rect x="-4.7" y="18.9" class="st2" width="36.5" height="1.7"/>
			</g>
			<g class="st1">
				<rect x="-4.7" y="17.2" class="st45" width="36.5" height="1.7"/>
			</g>
			<g class="st1">
				<rect x="-4.7" y="15.6" class="st2" width="36.5" height="1.6"/>
			</g>
			<g class="st1">
				<rect x="-4.7" y="14" class="st45" width="36.5" height="1.7"/>
			</g>
			<g class="st1">
				<rect x="-4.7" y="12.3" class="st2" width="36.5" height="1.7"/>
			</g>
			<g class="st1">
				<rect x="-4.7" y="10.6" class="st45" width="36.5" height="1.7"/>
			</g>
			<g class="st1">
				<rect x="-4.7" y="9.1" class="st2" width="36.5" height="1.6"/>
			</g>
			<g class="st1">
				<rect x="-4.7" y="7.4" class="st45" width="36.5" height="1.7"/>
			</g>
			<g class="st1">
				<rect x="-4.7" y="5.7" class="st2" width="36.5" height="1.7"/>
			</g>
			<g class="st1">
				<rect x="-4.7" y="4.2" class="st45" width="36.5" height="1.6"/>
			</g>
			<g class="st1">
				<rect x="-4.7" y="2.5" class="st2" width="36.5" height="1.7"/>
			</g>
			<g class="st1">
				<rect x="-4.7" y="0.8" class="st45" width="36.5" height="1.7"/>
			</g>
			<g class="st1">
				<rect x="-4.7" y="0.8" class="st46" width="16.7" height="11.5"/>
			</g>
			<g class="st1">
				<polygon class="st2" points="-0.5,2.1 -0.3,2.5 0.1,2.5 -0.3,2.7 0,3.2 -0.5,3 -0.9,3.2 -0.8,2.7 -1.1,2.5 -0.6,2.5 				"/>
			</g>
			<g class="st1">
				<polygon class="st2" points="-0.5,4 -0.3,4.4 0.1,4.4 -0.3,4.6 0,5.1 -0.5,4.9 -0.9,5.1 -0.8,4.6 -1.1,4.4 -0.6,4.4 				"/>
			</g>
			<g class="st1">
				<polygon class="st2" points="-0.5,6 -0.3,6.3 0.1,6.3 -0.3,6.6 0,7 -0.5,6.8 -0.9,7 -0.8,6.6 -1.1,6.3 -0.6,6.3 				"/>
			</g>
			<g class="st1">
				<polygon class="st2" points="-0.5,7.9 -0.3,8.2 0.1,8.2 -0.3,8.6 0,9 -0.5,8.7 -0.9,9 -0.8,8.6 -1.1,8.2 -0.6,8.2 				"/>
			</g>
			<g class="st1">
				<polygon class="st2" points="-0.5,9.8 -0.3,10.1 0.1,10.1 -0.3,10.5 0,10.9 -0.5,10.6 -0.9,10.9 -0.8,10.5 -1.1,10.1 -0.6,10.1 
									"/>
			</g>
			<g class="st1">
				<polygon class="st2" points="0.9,3.1 1,3.6 1.4,3.6 1,3.8 1.3,4.2 0.9,3.9 0.4,4.2 0.7,3.8 0.2,3.6 0.7,3.6 				"/>
			</g>
			<g class="st1">
				<polygon class="st2" points="0.9,5 1,5.5 1.4,5.5 1,5.7 1.3,6.2 0.9,5.8 0.4,6.2 0.7,5.7 0.2,5.5 0.7,5.5 				"/>
			</g>
			<g class="st1">
				<polygon class="st2" points="0.9,6.9 1,7.4 1.4,7.4 1,7.6 1.3,8.1 0.9,7.8 0.4,8.1 0.7,7.6 0.2,7.4 0.7,7.4 				"/>
			</g>
			<g class="st1">
				<polygon class="st2" points="0.9,8.8 1,9.3 1.4,9.3 1,9.6 1.3,10 0.9,9.7 0.4,10 0.7,9.6 0.2,9.3 0.7,9.3 				"/>
			</g>
			<g class="st1">
				<polygon class="st2" points="2.2,2.1 2.3,2.5 2.8,2.5 2.5,2.7 2.6,3.2 2.2,3 1.9,3.2 2,2.7 1.6,2.5 2.1,2.5 				"/>
			</g>
			<g class="st1">
				<polygon class="st2" points="2.2,4 2.3,4.4 2.8,4.4 2.5,4.6 2.6,5.1 2.2,4.9 1.9,5.1 2,4.6 1.6,4.4 2.1,4.4 				"/>
			</g>
			<g class="st1">
				<polygon class="st2" points="2.2,6 2.3,6.3 2.8,6.3 2.5,6.6 2.6,7 2.2,6.8 1.9,7 2,6.6 1.6,6.3 2.1,6.3 				"/>
			</g>
			<g class="st1">
				<polygon class="st2" points="2.2,7.9 2.3,8.2 2.8,8.2 2.5,8.6 2.6,9 2.2,8.7 1.9,9 2,8.6 1.6,8.2 2.1,8.2 				"/>
			</g>
			<g class="st1">
				<polygon class="st2" points="2.2,9.8 2.3,10.1 2.8,10.1 2.5,10.5 2.6,10.9 2.2,10.6 1.9,10.9 2,10.5 1.6,10.1 2.1,10.1 				"/>
			</g>
			<g class="st1">
				<polygon class="st2" points="3.5,3.1 3.7,3.6 4.1,3.6 3.8,3.8 3.9,4.2 3.5,3.9 3.2,4.2 3.3,3.8 2.9,3.6 3.4,3.6 				"/>
			</g>
			<g class="st1">
				<polygon class="st2" points="3.5,5 3.7,5.5 4.1,5.5 3.8,5.7 3.9,6.2 3.5,5.8 3.2,6.2 3.3,5.7 2.9,5.5 3.4,5.5 				"/>
			</g>
			<g class="st1">
				<polygon class="st2" points="3.5,6.9 3.7,7.4 4.1,7.4 3.8,7.6 3.9,8.1 3.5,7.8 3.2,8.1 3.3,7.6 2.9,7.4 3.4,7.4 				"/>
			</g>
			<g class="st1">
				<polygon class="st2" points="3.5,8.8 3.7,9.3 4.1,9.3 3.8,9.6 3.9,10 3.5,9.7 3.2,10 3.3,9.6 2.9,9.3 3.4,9.3 				"/>
			</g>
			<g class="st1">
				<polygon class="st2" points="4.8,2.1 5,2.5 5.4,2.5 5.1,2.7 5.2,3.2 4.8,3 4.5,3.2 4.6,2.7 4.2,2.5 4.7,2.5 				"/>
			</g>
			<g class="st1">
				<polygon class="st2" points="4.8,4 5,4.4 5.4,4.4 5.1,4.6 5.2,5.1 4.8,4.9 4.5,5.1 4.6,4.6 4.2,4.4 4.7,4.4 				"/>
			</g>
			<g class="st1">
				<polygon class="st2" points="4.8,6 5,6.3 5.4,6.3 5.1,6.6 5.2,7 4.8,6.8 4.5,7 4.6,6.6 4.2,6.3 4.7,6.3 				"/>
			</g>
			<g class="st1">
				<polygon class="st2" points="4.8,7.9 5,8.2 5.4,8.2 5.1,8.6 5.2,9 4.8,8.7 4.5,9 4.6,8.6 4.2,8.2 4.7,8.2 				"/>
			</g>
			<g class="st1">
				<polygon class="st2" points="4.8,9.8 5,10.1 5.4,10.1 5.1,10.5 5.2,10.9 4.8,10.6 4.5,10.9 4.6,10.5 4.2,10.1 4.7,10.1 				"/>
			</g>
			<g class="st1">
				<polygon class="st2" points="6.2,3.1 6.4,3.6 6.8,3.6 6.4,3.8 6.6,4.2 6.2,3.9 5.8,4.2 5.9,3.8 5.7,3.6 6,3.6 				"/>
			</g>
			<g class="st1">
				<polygon class="st2" points="6.2,5 6.4,5.5 6.8,5.5 6.4,5.7 6.6,6.2 6.2,5.8 5.8,6.2 5.9,5.7 5.7,5.5 6,5.5 				"/>
			</g>
			<g class="st1">
				<polygon class="st2" points="6.2,6.9 6.4,7.4 6.8,7.4 6.4,7.6 6.6,8.1 6.2,7.8 5.8,8.1 5.9,7.6 5.7,7.4 6,7.4 				"/>
			</g>
			<g class="st1">
				<polygon class="st2" points="6.2,8.8 6.4,9.3 6.8,9.3 6.4,9.6 6.6,10 6.2,9.7 5.8,10 5.9,9.6 5.7,9.3 6,9.3 				"/>
			</g>
			<g class="st1">
				<polygon class="st2" points="7.6,2.1 7.7,2.5 8.2,2.5 7.8,2.7 7.9,3.2 7.6,3 7.2,3.2 7.3,2.7 7,2.5 7.3,2.5 				"/>
			</g>
			<g class="st1">
				<polygon class="st2" points="7.6,4 7.7,4.4 8.2,4.4 7.8,4.6 7.9,5.1 7.6,4.9 7.2,5.1 7.3,4.6 7,4.4 7.3,4.4 				"/>
			</g>
			<g class="st1">
				<polygon class="st2" points="7.6,6 7.7,6.3 8.2,6.3 7.8,6.6 7.9,7 7.6,6.8 7.2,7 7.3,6.6 7,6.3 7.3,6.3 				"/>
			</g>
			<g class="st1">
				<polygon class="st2" points="7.6,7.9 7.7,8.2 8.2,8.2 7.8,8.6 7.9,9 7.6,8.7 7.2,9 7.3,8.6 7,8.2 7.3,8.2 				"/>
			</g>
			<g class="st1">
				<polygon class="st2" points="7.6,9.8 7.7,10.1 8.2,10.1 7.8,10.5 7.9,10.9 7.6,10.6 7.2,10.9 7.3,10.5 7,10.1 7.3,10.1 				"/>
			</g>
			<g class="st1">
				<polygon class="st2" points="8.9,3.1 9,3.6 9.5,3.6 9.1,3.8 9.3,4.2 8.9,3.9 8.5,4.2 8.7,3.8 8.3,3.6 8.8,3.6 				"/>
			</g>
			<g class="st1">
				<polygon class="st2" points="8.9,5 9,5.5 9.5,5.5 9.1,5.7 9.3,6.2 8.9,5.8 8.5,6.2 8.7,5.7 8.3,5.5 8.8,5.5 				"/>
			</g>
			<g class="st1">
				<polygon class="st2" points="8.9,6.9 9,7.4 9.5,7.4 9.1,7.6 9.3,8.1 8.9,7.8 8.5,8.1 8.7,7.6 8.3,7.4 8.8,7.4 				"/>
			</g>
			<g class="st1">
				<polygon class="st2" points="8.9,8.8 9,9.3 9.5,9.3 9.1,9.6 9.3,10 8.9,9.7 8.5,10 8.7,9.6 8.3,9.3 8.8,9.3 				"/>
			</g>
			<g class="st1">
				<polygon class="st2" points="10.2,2.1 10.5,2.5 10.8,2.5 10.5,2.7 10.6,3.2 10.2,3 9.9,3.2 10,2.7 9.6,2.5 10.1,2.5 				"/>
			</g>
			<g class="st1">
				<polygon class="st2" points="10.2,4 10.5,4.4 10.8,4.4 10.5,4.6 10.6,5.1 10.2,4.9 9.9,5.1 10,4.6 9.6,4.4 10.1,4.4 				"/>
			</g>
			<g class="st1">
				<polygon class="st2" points="10.2,6 10.5,6.3 10.8,6.3 10.5,6.6 10.6,7 10.2,6.8 9.9,7 10,6.6 9.6,6.3 10.1,6.3 				"/>
			</g>
			<g class="st1">
				<polygon class="st2" points="10.2,7.9 10.5,8.2 10.8,8.2 10.5,8.6 10.6,9 10.2,8.7 9.9,9 10,8.6 9.6,8.2 10.1,8.2 				"/>
			</g>
			<g class="st1">
				<polygon class="st2" points="10.2,9.8 10.5,10.1 10.8,10.1 10.5,10.5 10.6,10.9 10.2,10.6 9.9,10.9 10,10.5 9.6,10.1 10.1,10.1 
									"/>
			</g>
		</g>
	</g>
	<use xlink:href="#XMLID_73_"  style="overflow:visible;fill:none;stroke:#E8E8E8;stroke-miterlimit:10;"/>
</g>
</svg>
